<svg width="1256" height="889" viewBox="0 0 1256 889" fill="none" xmlns="http://www.w3.org/2000/svg">
<g opacity="0.4">
<path fill-rule="evenodd" clip-rule="evenodd" d="M-224.864 456.138C-282.564 378.933 -197.53 264.314 -227.962 172.861C-267.915 52.7933 -455.65 -20.4753 -424.249 -143.058C-394.886 -257.688 -219.973 -248.764 -109.258 -290.532C-23.9788 -322.704 60.8005 -338.999 149.601 -359.546C264.582 -386.15 390.206 -492.934 489.449 -429.064C589.414 -364.729 522.29 -197.966 569.913 -89.0438C614.783 13.5842 806.178 81.6214 756.656 182.088C697.786 301.521 499.907 232.567 381.43 293.337C325.372 322.091 313.869 398.682 262.708 435.448C196.072 483.335 125.532 532.67 43.5483 536.148C-51.6572 540.188 -167.818 532.467 -224.864 456.138Z" fill="#007EFF" fill-opacity="0.2"/>
<path fill-rule="evenodd" clip-rule="evenodd" d="M224.819 -325.959C309.786 -322.188 384.922 -395.239 468.728 -380.741C571.977 -362.88 679.456 -321.525 740.937 -236.676C805.93 -146.978 875.876 -2.05735 804.486 82.6377C716.024 187.588 503.2 59.0689 408.171 158.112C321.088 248.873 488.954 466.454 378.496 526.621C280.25 580.136 241.506 334.364 132.749 308.136C13.4389 279.363 -148.855 482.01 -220.296 382.216C-295.361 277.359 -42.9922 166.483 -60.1554 38.6734C-77.0806 -87.364 -312.327 -117.325 -304.422 -244.248C-297.766 -351.123 -138.476 -386.652 -32.6479 -402.991C57.7144 -416.942 133.476 -330.012 224.819 -325.959Z" fill="#007EFF" fill-opacity="0.2"/>
<path fill-rule="evenodd" clip-rule="evenodd" d="M199.175 -117.228C288.332 -112.657 348.402 -226.649 437.676 -226.632C557.559 -226.61 762.689 -236.594 772.593 -117.12C784.548 27.1024 551.012 62.4781 471.674 183.509C437.337 235.89 497.444 320.518 455.324 366.872C413.071 413.373 336.54 396.725 273.869 401.202C223.523 404.798 176.379 390.038 125.906 390.403C48.087 390.966 -44.6952 456.108 -102.429 403.925C-157.371 354.266 -105.217 260.134 -99.9528 186.262C-95.8457 128.627 -80.8933 75.7543 -74.948 18.2794C-65.4642 -73.4035 -137.259 -211.028 -54.6313 -251.874C32.9966 -295.191 101.554 -122.234 199.175 -117.228Z" fill="#007EFF" fill-opacity="0.2"/>
<path fill-rule="evenodd" clip-rule="evenodd" d="M324.327 -372.875C409.495 -386.825 505.874 -425.648 577.937 -378.159C650.044 -330.641 628.248 -216.612 673.272 -142.922C727.714 -53.8169 861.564 -9.20658 867.073 95.0687C872.439 196.637 781.652 283.093 698.903 342.233C624.379 395.495 518.956 362.741 436.558 402.757C327.989 455.482 268.744 618.145 148.352 609.602C34.6835 601.536 -52.8682 476.288 -81.5157 365.994C-108.636 261.577 -3.97399 168.624 5.9115 61.1966C12.5558 -11.0084 -55.7704 -78.8883 -34.2069 -148.118C-12.1353 -218.978 56.4817 -263.626 119.366 -303.047C181.784 -342.175 251.627 -360.967 324.327 -372.875Z" fill="#007EFF" fill-opacity="0.2"/>
<path fill-rule="evenodd" clip-rule="evenodd" d="M468.662 -417.102C587.648 -383.944 595.475 -212.27 678.579 -120.886C733.344 -60.6661 826.368 -45.6253 869.347 23.501C915.091 97.0757 922.943 185.77 923.107 272.406C923.294 370.635 939.354 486.349 870.357 556.266C801.162 626.383 682.791 592.592 586.52 613.478C498.778 632.513 414.966 701.296 329.564 673.591C244.287 645.927 208.654 547.681 157.259 474.224C111.13 408.294 66.9534 343.575 44.5863 266.282C19.392 179.218 -0.0771819 89.3008 20.3153 0.988674C43.4613 -99.2482 91.6754 -193.31 166.913 -263.47C251.167 -342.038 357.688 -448.026 468.662 -417.102Z" fill="#007EFF" fill-opacity="0.2"/>
<path fill-rule="evenodd" clip-rule="evenodd" d="M872.119 -210.541C950.882 -148.315 1058.76 -112.834 1097.61 -20.2778C1138.18 76.3747 1142.17 202.174 1081.11 287.375C1020.14 372.46 872.365 330.543 795.373 401.462C703.064 486.491 724.069 667.059 610.631 720.749C500.963 772.654 362.949 719.248 260.166 654.773C159.948 591.908 114.25 476.215 56.3434 373.053C-2.3078 268.565 -103.445 165.955 -80.1992 48.4076C-56.8361 -69.73 84.7454 -116.915 170.05 -201.917C240.854 -272.469 283.491 -378.186 378.64 -408.803C472.896 -439.133 573.912 -398.349 665.79 -361.436C746.488 -329.015 803.879 -264.455 872.119 -210.541Z" fill="#007EFF" fill-opacity="0.2"/>
</g>
</svg>
